<svg width="27" height="28" viewBox="0 0 27 28" fill="none" xmlns="http://www.w3.org/2000/svg">
<path d="M25.3667 0.666748H1.63335C1.24437 0.666748 0.871317 0.821272 0.596264 1.09632C0.321211 1.37138 0.166687 1.74443 0.166687 2.13341V25.8667C0.166687 26.0594 0.204624 26.2501 0.27833 26.428C0.352037 26.606 0.460071 26.7676 0.596264 26.9038C0.732457 27.04 0.894141 27.1481 1.07208 27.2218C1.25003 27.2955 1.44075 27.3334 1.63335 27.3334H14.4067V17.0001H10.94V13.0001H14.4067V10.0001C14.3349 9.29576 14.418 8.58425 14.6503 7.91546C14.8826 7.24668 15.2584 6.63681 15.7513 6.12863C16.2442 5.62045 16.8424 5.22627 17.5038 4.97373C18.1652 4.72119 18.8738 4.61642 19.58 4.66675C20.6178 4.66036 21.6551 4.71378 22.6867 4.82675V8.42675H20.5667C18.8867 8.42675 18.5667 9.22675 18.5667 10.3867V12.9601H22.5667L22.0467 16.9601H18.5667V27.3334H25.3667C25.5593 27.3334 25.75 27.2955 25.928 27.2218C26.1059 27.1481 26.2676 27.04 26.4038 26.9038C26.54 26.7676 26.648 26.606 26.7217 26.428C26.7954 26.2501 26.8334 26.0594 26.8334 25.8667V2.13341C26.8334 1.94081 26.7954 1.75009 26.7217 1.57215C26.648 1.3942 26.54 1.23252 26.4038 1.09632C26.2676 0.960132 26.1059 0.852098 25.928 0.778392C25.75 0.704685 25.5593 0.666748 25.3667 0.666748Z" fill="#1D1238"/>
</svg>
