<svg width="27" height="28" viewBox="0 0 27 28" fill="none" xmlns="http://www.w3.org/2000/svg">
<path d="M20.62 5.28008C20.3036 5.28008 19.9942 5.37392 19.7311 5.54973C19.468 5.72554 19.2629 5.97543 19.1418 6.26779C19.0207 6.56015 18.989 6.88186 19.0508 7.19223C19.1125 7.5026 19.2649 7.78769 19.4887 8.01145C19.7124 8.23522 19.9975 8.3876 20.3079 8.44934C20.6182 8.51107 20.94 8.47939 21.2323 8.35829C21.5247 8.23719 21.7746 8.03211 21.9504 7.76899C22.1262 7.50588 22.22 7.19653 22.22 6.88008C22.22 6.45574 22.0515 6.04877 21.7514 5.74871C21.4513 5.44865 21.0444 5.28008 20.62 5.28008ZM26.7534 8.50675C26.7274 7.40048 26.5202 6.30595 26.14 5.26675C25.801 4.37759 25.2733 3.57245 24.5934 2.90675C23.9331 2.22332 23.1261 1.69898 22.2334 1.37341C21.1969 0.981629 20.1012 0.769695 18.9934 0.746748C17.58 0.666748 17.1267 0.666748 13.5 0.666748C9.87335 0.666748 9.42002 0.666748 8.00669 0.746748C6.89889 0.769695 5.80314 0.981629 4.76669 1.37341C3.87559 1.70228 3.06927 2.22616 2.40669 2.90675C1.72326 3.56699 1.19892 4.374 0.873354 5.26675C0.481568 6.30321 0.269634 7.39895 0.246687 8.50675C0.166687 9.92008 0.166687 10.3734 0.166687 14.0001C0.166687 17.6267 0.166687 18.0801 0.246687 19.4934C0.269634 20.6012 0.481568 21.697 0.873354 22.7334C1.19892 23.6262 1.72326 24.4332 2.40669 25.0934C3.06927 25.774 3.87559 26.2979 4.76669 26.6267C5.80314 27.0185 6.89889 27.2305 8.00669 27.2534C9.42002 27.3334 9.87335 27.3334 13.5 27.3334C17.1267 27.3334 17.58 27.3334 18.9934 27.2534C20.1012 27.2305 21.1969 27.0185 22.2334 26.6267C23.1261 26.3012 23.9331 25.7768 24.5934 25.0934C25.2763 24.4302 25.8045 23.6243 26.14 22.7334C26.5202 21.6942 26.7274 20.5997 26.7534 19.4934C26.7534 18.0801 26.8334 17.6267 26.8334 14.0001C26.8334 10.3734 26.8334 9.92008 26.7534 8.50675ZM24.3534 19.3334C24.3436 20.1798 24.1904 21.0184 23.9 21.8134C23.6871 22.3937 23.3452 22.918 22.9 23.3467C22.4676 23.7874 21.9443 24.1287 21.3667 24.3467C20.5716 24.6371 19.7331 24.7904 18.8867 24.8001C17.5534 24.8667 17.06 24.8801 13.5534 24.8801C10.0467 24.8801 9.55335 24.8801 8.22002 24.8001C7.34121 24.8165 6.46615 24.6812 5.63335 24.4001C5.08106 24.1709 4.58183 23.8305 4.16669 23.4001C3.72414 22.9717 3.38648 22.447 3.18002 21.8667C2.8545 21.0603 2.67394 20.2027 2.64669 19.3334C2.64669 18.0001 2.56669 17.5067 2.56669 14.0001C2.56669 10.4934 2.56669 10.0001 2.64669 8.66675C2.65266 7.80149 2.81062 6.94401 3.11335 6.13341C3.34808 5.57063 3.70837 5.06896 4.16669 4.66675C4.57177 4.20831 5.0724 3.84421 5.63335 3.60008C6.44609 3.30681 7.30268 3.15352 8.16669 3.14675C9.50002 3.14675 9.99335 3.06675 13.5 3.06675C17.0067 3.06675 17.5 3.06675 18.8334 3.14675C19.6797 3.15646 20.5183 3.30974 21.3134 3.60008C21.9193 3.82495 22.4631 4.19054 22.9 4.66675C23.337 5.07632 23.6784 5.57706 23.9 6.13341C24.1964 6.94533 24.3497 7.80245 24.3534 8.66675C24.42 10.0001 24.4334 10.4934 24.4334 14.0001C24.4334 17.5067 24.42 18.0001 24.3534 19.3334ZM13.5 7.16008C12.1478 7.16272 10.8266 7.56612 9.70356 8.31931C8.58048 9.0725 7.70586 10.1417 7.1902 11.3918C6.67454 12.6418 6.54099 14.0167 6.80641 15.3427C7.07184 16.6686 7.72434 17.8861 8.68146 18.8414C9.63858 19.7966 10.8574 20.4468 12.1838 20.7096C13.5103 20.9725 14.8849 20.8362 16.134 20.3181C17.383 19.8 18.4505 18.9233 19.2015 17.7988C19.9525 16.6743 20.3534 15.3523 20.3534 14.0001C20.3551 13.1002 20.179 12.2089 19.835 11.3774C19.4911 10.5458 18.9861 9.79049 18.3492 9.15482C17.7123 8.51914 16.956 8.01565 16.1238 7.67332C15.2915 7.33099 14.3999 7.15656 13.5 7.16008ZM13.5 18.4401C12.6219 18.4401 11.7634 18.1797 11.0333 17.6918C10.3031 17.2039 9.73405 16.5105 9.39799 15.6992C9.06194 14.8879 8.97402 13.9952 9.14533 13.1339C9.31665 12.2726 9.73952 11.4815 10.3605 10.8605C10.9814 10.2396 11.7725 9.81671 12.6338 9.6454C13.4951 9.47408 14.3878 9.562 15.1991 9.89806C16.0104 10.2341 16.7039 10.8032 17.1917 11.5333C17.6796 12.2635 17.94 13.1219 17.94 14.0001C17.94 14.5832 17.8252 15.1605 17.602 15.6992C17.3789 16.2379 17.0519 16.7273 16.6396 17.1396C16.2273 17.5519 15.7378 17.879 15.1991 18.1021C14.6604 18.3252 14.0831 18.4401 13.5 18.4401Z" fill="#1D1238"/>
</svg>
