<svg width="27" height="22" viewBox="0 0 27 22" fill="none" xmlns="http://www.w3.org/2000/svg">
<path d="M26.8334 2.73337C25.8311 3.16816 24.7713 3.45559 23.6867 3.5867C24.8309 2.90313 25.6884 1.82775 26.1 0.560035C25.0248 1.20012 23.8477 1.6511 22.62 1.89337C21.7994 1.00346 20.7066 0.411097 19.5131 0.209171C18.3196 0.0072441 17.0927 0.20718 16.0251 0.777621C14.9574 1.34806 14.1093 2.25674 13.6137 3.36115C13.1181 4.46556 13.0031 5.70322 13.2867 6.88003C11.1126 6.77007 8.98594 6.20397 7.04489 5.21852C5.10384 4.23306 3.39182 2.85029 2.02002 1.16004C1.53887 2.00026 1.28605 2.9518 1.28669 3.92004C1.28498 4.81921 1.50564 5.70486 1.92903 6.49812C2.35241 7.29139 2.96538 7.96765 3.71335 8.4667C2.84399 8.44305 1.9932 8.20977 1.23335 7.7867V7.85337C1.23987 9.11322 1.68135 10.3322 2.48311 11.304C3.28487 12.2758 4.3977 12.9409 5.63335 13.1867C5.15769 13.3315 4.66385 13.4078 4.16669 13.4134C3.82254 13.4093 3.47925 13.3781 3.14002 13.32C3.4919 14.4038 4.17285 15.3509 5.08812 16.0296C6.00339 16.7083 7.10746 17.0848 8.24669 17.1067C6.32296 18.6204 3.94787 19.4465 1.50002 19.4534C1.05433 19.4548 0.609001 19.4281 0.166687 19.3734C2.66593 20.987 5.57844 21.8437 8.55335 21.84C10.6063 21.8614 12.6429 21.4734 14.5442 20.6988C16.4455 19.9242 18.1734 18.7785 19.627 17.3287C21.0805 15.8788 22.2306 14.1539 23.0101 12.2546C23.7896 10.3553 24.1827 8.31967 24.1667 6.2667C24.1667 6.04003 24.1667 5.80004 24.1667 5.56004C25.2129 4.77978 26.1153 3.82327 26.8334 2.73337Z" fill="#1D1238"/>
</svg>
