<svg width="48" height="48" viewBox="0 0 48 48" fill="none" xmlns="http://www.w3.org/2000/svg">
<path fill-rule="evenodd" clip-rule="evenodd" d="M10 24C10 20.287 11.475 16.726 14.1005 14.1005C16.726 11.475 20.287 10 24 10C27.713 10 31.274 11.475 33.8995 14.1005C36.525 16.726 38 20.287 38 24C38 27.713 36.525 31.274 33.8995 33.8995C31.274 36.525 27.713 38 24 38C20.287 38 16.726 36.525 14.1005 33.8995C11.475 31.274 10 27.713 10 24ZM16.1386 14.9443C18.0984 13.237 20.5616 12.2158 23.1545 12.0356C23.1545 15.9097 23.1545 18.0818 23.1545 21.9559L16.1386 14.9443ZM14.9443 16.1386C13.237 18.0984 12.2158 20.5616 12.0356 23.1545H21.9559L14.9443 16.1386ZM21.958 24.8455H12.0377C12.2173 27.4381 13.2378 29.9014 14.9443 31.8614L21.958 24.8455ZM16.1386 33.0557C18.0984 34.7628 20.5617 35.784 23.1545 35.9644V26.042L16.1386 33.0557ZM24.8455 26.042V35.9623C27.4374 35.7821 29.8997 34.7616 31.8593 33.0557L24.8455 26.042ZM33.0557 31.8593C34.7627 29.9002 35.7839 27.4377 35.9644 24.8455H26.042L33.0557 31.8593ZM26.042 23.1545H35.9623C35.7825 20.5619 34.7621 18.0987 33.0557 16.1386L26.042 23.1545ZM31.8614 14.9443C29.9016 13.237 27.4384 12.2158 24.8455 12.0356C24.8455 15.9097 24.8455 18.0818 24.8455 21.9559L31.8614 14.9422V14.9443Z" fill="#9173F3"/>
<circle cx="24" cy="24" r="22.5" stroke="black" stroke-width="3"/>
<circle cx="24" cy="24" r="13.5" stroke="black" stroke-width="3"/>
</svg>
