<svg width="100" height="46" viewBox="0 0 100 46" fill="none" xmlns="http://www.w3.org/2000/svg">
<path d="M18.92 23.928C19.1973 23.928 19.4107 24.0667 19.56 24.344C19.7307 24.6 19.816 24.9307 19.816 25.336C19.816 25.8267 19.7413 26.2107 19.592 26.488C19.4427 26.7654 19.208 27.0107 18.888 27.224L12.744 31.352C11.9333 35.768 10.8667 39.2347 9.54401 41.752C8.24268 44.2907 6.57868 45.56 4.55201 45.56C3.46401 45.56 2.57868 45.2187 1.89601 44.536C1.21334 43.8747 0.872009 43 0.872009 41.912C0.872009 40.9094 1.09601 39.8854 1.54401 38.84C2.01334 37.7947 2.86668 36.5894 4.10401 35.224C5.36268 33.88 7.13334 32.3334 9.41601 30.584L9.51201 29.848C9.66134 29.0587 9.83201 27.928 10.024 26.456C9.59734 27.992 9.00001 29.1654 8.23201 29.976C7.46401 30.7654 6.65334 31.16 5.80001 31.16C4.84001 31.16 4.05068 30.7227 3.43201 29.848C2.83468 28.952 2.53601 27.8427 2.53601 26.52C2.53601 24.92 2.64268 23.4587 2.85601 22.136C3.06934 20.792 3.42134 19.3734 3.91201 17.88C4.12534 17.24 4.42401 16.7814 4.80801 16.504C5.19201 16.2267 5.80001 16.088 6.63201 16.088C7.10134 16.088 7.42134 16.1627 7.59201 16.312C7.78401 16.4614 7.88001 16.6854 7.88001 16.984C7.88001 17.1547 7.76268 17.7307 7.52801 18.712C7.31468 19.5014 7.14401 20.216 7.01601 20.856C6.84534 21.7307 6.69601 22.5734 6.56801 23.384C6.44001 24.1734 6.37601 24.824 6.37601 25.336C6.37601 26.1467 6.60001 26.552 7.04801 26.552C7.36801 26.552 7.76268 26.232 8.23201 25.592C8.72268 24.952 9.23468 23.9814 9.76801 22.68C10.3227 21.3787 10.856 19.7787 11.368 17.88C11.5387 17.24 11.7947 16.7814 12.136 16.504C12.4987 16.2267 13.032 16.088 13.736 16.088C14.2267 16.088 14.568 16.152 14.76 16.28C14.952 16.408 15.048 16.6214 15.048 16.92C15.048 17.4534 14.7707 19.288 14.216 22.424L13.384 27.576C15.0267 26.3387 16.6267 25.208 18.184 24.184C18.4613 24.0134 18.7067 23.928 18.92 23.928ZM4.90401 42.456C5.43734 42.456 6.03468 41.8374 6.69601 40.6C7.35734 39.3627 8.01868 37.304 8.68001 34.424C7.03734 35.8107 5.84268 37.0694 5.09601 38.2C4.37068 39.352 4.00801 40.3547 4.00801 41.208C4.00801 41.5707 4.07201 41.8694 4.20001 42.104C4.34934 42.3387 4.58401 42.456 4.90401 42.456Z" fill="black"/>
<path d="M21.216 31.16C20 31.16 19.008 30.68 18.24 29.72C17.4933 28.76 17.12 27.5014 17.12 25.944C17.12 24.2374 17.5147 22.6267 18.304 21.112C19.0933 19.576 20.1387 18.3494 21.44 17.432C22.7627 16.4934 24.16 16.024 25.632 16.024C26.1013 16.024 26.4107 16.12 26.56 16.312C26.7307 16.4827 26.8693 16.8027 26.976 17.272C27.3813 17.1867 27.8293 17.144 28.32 17.144C28.832 17.144 29.2267 17.272 29.504 17.528C29.7813 17.784 29.92 18.1467 29.92 18.616C29.92 19.1067 29.8133 19.96 29.6 21.176C29.3653 22.4774 29.184 23.7254 29.056 24.92C28.928 26.0934 28.864 27.416 28.864 28.888C28.864 29.6987 28.6933 30.2854 28.352 30.648C28.032 30.9894 27.4987 31.16 26.752 31.16C26.0267 31.16 25.4827 30.9894 25.12 30.648C24.7787 30.2854 24.608 29.7094 24.608 28.92L24.64 28.408C23.9787 30.2427 22.8373 31.16 21.216 31.16ZM22.464 27.928C23.0613 27.928 23.6053 27.512 24.096 26.68C24.5867 25.848 25.024 24.3654 25.408 22.232L26.016 19C25.1413 19.0214 24.3307 19.3627 23.584 20.024C22.8373 20.664 22.24 21.5174 21.792 22.584C21.344 23.6507 21.12 24.7814 21.12 25.976C21.12 26.616 21.2373 27.1067 21.472 27.448C21.728 27.768 22.0587 27.928 22.464 27.928Z" fill="black"/>
<path d="M34.4643 31.16C33.6536 31.16 33.0776 30.7334 32.7363 29.88C32.4163 29.0267 32.2563 27.6614 32.2563 25.784C32.2563 23.0107 32.6509 20.376 33.4403 17.88C33.6323 17.2614 33.9416 16.8134 34.3683 16.536C34.8163 16.2374 35.4349 16.088 36.2243 16.088C36.6509 16.088 36.9496 16.1414 37.1203 16.248C37.2909 16.3547 37.3763 16.5574 37.3763 16.856C37.3763 17.1974 37.2163 17.9654 36.8963 19.16C36.6829 20.0134 36.5123 20.76 36.3843 21.4C36.2563 22.0187 36.1496 22.7974 36.0643 23.736C36.6403 22.072 37.3229 20.664 38.1123 19.512C38.9229 18.36 39.7443 17.5067 40.5763 16.952C41.4296 16.376 42.2296 16.088 42.9763 16.088C43.7229 16.088 44.2456 16.2587 44.5443 16.6C44.8643 16.9414 45.0243 17.464 45.0243 18.168C45.0243 18.8507 44.8216 20.088 44.4163 21.88C44.2456 22.648 44.1283 23.224 44.0643 23.608C44.7683 21.816 45.5469 20.3547 46.4003 19.224C47.2749 18.0934 48.1283 17.2934 48.9603 16.824C49.7923 16.3334 50.5603 16.088 51.2643 16.088C51.9469 16.088 52.4589 16.2694 52.8003 16.632C53.1629 16.9734 53.3443 17.4854 53.3443 18.168C53.3443 18.7227 53.2269 19.768 52.9923 21.304C52.7789 22.6054 52.6083 23.8427 52.4803 25.016C52.3523 26.168 52.2883 27.4587 52.2883 28.888C52.2883 29.6987 52.1176 30.2854 51.7763 30.648C51.4563 30.9894 50.9229 31.16 50.1763 31.16C49.4723 31.16 48.9603 30.9787 48.6403 30.616C48.3203 30.2534 48.1603 29.7094 48.1603 28.984C48.1603 28.1307 48.3096 26.7227 48.6083 24.76C48.8643 23.0534 48.9923 21.9654 48.9923 21.496C48.9923 21.1547 48.8749 20.984 48.6403 20.984C48.3629 20.984 47.9683 21.3467 47.4563 22.072C46.9443 22.776 46.4323 23.7147 45.9203 24.888C45.4083 26.0614 44.9923 27.2987 44.6723 28.6C44.4376 29.624 44.1603 30.3067 43.8403 30.648C43.5416 30.9894 43.0509 31.16 42.3683 31.16C41.6643 31.16 41.1309 30.8294 40.7683 30.168C40.4269 29.4854 40.2563 28.664 40.2563 27.704C40.2563 26.8934 40.3629 25.72 40.5763 24.184C40.7469 22.8187 40.8323 21.9227 40.8323 21.496C40.8323 21.1547 40.7149 20.984 40.4803 20.984C40.1603 20.984 39.7549 21.368 39.2643 22.136C38.7736 22.904 38.2936 23.8854 37.8243 25.08C37.3763 26.2747 37.0136 27.448 36.7363 28.6C36.5016 29.6027 36.2243 30.2854 35.9043 30.648C35.6056 30.9894 35.1256 31.16 34.4643 31.16Z" fill="black"/>
<path d="M59.5658 31.16C58.2431 31.16 57.1871 30.68 56.3978 29.72C55.6084 28.76 55.2138 27.5014 55.2138 25.944C55.2138 24.2374 55.6084 22.6267 56.3978 21.112C57.1871 19.576 58.2324 18.3494 59.5338 17.432C60.8564 16.4934 62.2538 16.024 63.7258 16.024C64.1951 16.024 64.5044 16.12 64.6538 16.312C64.8244 16.4827 64.9631 16.8027 65.0698 17.272C65.5178 17.1867 65.9871 17.144 66.4778 17.144C67.5231 17.144 68.0458 17.5174 68.0458 18.264C68.0458 18.712 67.8858 19.7787 67.5658 21.464C67.0751 23.9174 66.8298 25.624 66.8298 26.584C66.8298 26.904 66.9044 27.16 67.0538 27.352C67.2244 27.544 67.4378 27.64 67.6938 27.64C68.0991 27.64 68.5898 27.384 69.1658 26.872C69.7418 26.3387 70.5204 25.4854 71.5018 24.312C71.7578 24.0134 72.0458 23.864 72.3658 23.864C72.6431 23.864 72.8564 23.992 73.0058 24.248C73.1764 24.504 73.2618 24.856 73.2618 25.304C73.2618 26.1574 73.0591 26.8187 72.6538 27.288C71.7791 28.376 70.8511 29.2934 69.8698 30.04C68.8884 30.7867 67.9391 31.16 67.0218 31.16C66.3178 31.16 65.6671 30.9254 65.0698 30.456C64.4938 29.9654 64.0564 29.304 63.7578 28.472C62.6484 30.264 61.2511 31.16 59.5658 31.16ZM60.7178 27.928C61.1871 27.928 61.6351 27.6507 62.0618 27.096C62.4884 26.5414 62.7978 25.8054 62.9898 24.888L64.1738 19C63.2778 19.0214 62.4458 19.3627 61.6778 20.024C60.9311 20.664 60.3338 21.5174 59.8858 22.584C59.4378 23.6507 59.2138 24.7814 59.2138 25.976C59.2138 26.6374 59.3418 27.128 59.5978 27.448C59.8751 27.768 60.2484 27.928 60.7178 27.928Z" fill="#9173F3"/>
<path d="M88.837 23.864C89.1143 23.864 89.3277 23.992 89.477 24.248C89.6477 24.504 89.733 24.856 89.733 25.304C89.733 26.1574 89.5303 26.8187 89.125 27.288C88.2503 28.3547 87.2903 29.272 86.245 30.04C85.1997 30.7867 84.165 31.16 83.141 31.16C81.5197 31.16 80.2823 30.2107 79.429 28.312C78.533 29.4427 77.7437 30.2 77.061 30.584C76.3997 30.968 75.621 31.16 74.725 31.16C73.4237 31.16 72.3463 30.68 71.493 29.72C70.661 28.7387 70.245 27.4694 70.245 25.912C70.245 24.2054 70.6077 22.6267 71.333 21.176C72.0583 19.704 73.0503 18.5094 74.309 17.592C75.589 16.6534 77.0183 16.0987 78.597 15.928C79.0023 11.7894 79.7703 8.25871 80.901 5.33604C82.053 2.39204 83.557 0.920044 85.413 0.920044C86.3303 0.920044 87.0877 1.33604 87.685 2.16805C88.3037 3.00004 88.613 4.25871 88.613 5.94404C88.613 8.33338 88.0263 11.128 86.853 14.328C85.6797 17.528 84.1117 20.8134 82.149 24.184C82.2343 25.4214 82.4157 26.3067 82.693 26.84C82.9917 27.3734 83.365 27.64 83.813 27.64C84.389 27.64 84.9757 27.384 85.573 26.872C86.1703 26.36 86.9703 25.5067 87.973 24.312C88.229 24.0134 88.517 23.864 88.837 23.864ZM85.061 4.05604C84.6557 4.05604 84.2503 4.78138 83.845 6.23204C83.4397 7.66138 83.0877 9.53871 82.789 11.864C82.5117 14.1894 82.309 16.6214 82.181 19.16C84.5703 13.9547 85.765 9.77338 85.765 6.61604C85.765 5.80538 85.6903 5.17605 85.541 4.72804C85.413 4.28004 85.253 4.05604 85.061 4.05604ZM75.845 27.928C76.2503 27.928 76.6557 27.768 77.061 27.448C77.4663 27.1067 77.9783 26.488 78.597 25.592C78.3837 24.44 78.277 23.1494 78.277 21.72C78.277 21.208 78.2983 20.376 78.341 19.224C77.1677 19.5867 76.1863 20.376 75.397 21.592C74.629 22.7867 74.245 24.12 74.245 25.592C74.245 27.1494 74.7783 27.928 75.845 27.928Z" fill="#9173F3"/>
<path d="M90.4973 31.16C89.2813 31.16 88.2893 30.68 87.5213 29.72C86.7746 28.76 86.4013 27.5014 86.4013 25.944C86.4013 24.2374 86.7959 22.6267 87.5853 21.112C88.3746 19.576 89.4199 18.3494 90.7213 17.432C92.0439 16.4934 93.4413 16.024 94.9133 16.024C95.3826 16.024 95.6919 16.12 95.8413 16.312C96.0119 16.4827 96.1506 16.8027 96.2573 17.272C96.6626 17.1867 97.1106 17.144 97.6013 17.144C98.1133 17.144 98.5079 17.272 98.7853 17.528C99.0626 17.784 99.2013 18.1467 99.2013 18.616C99.2013 19.1067 99.0946 19.96 98.8813 21.176C98.6466 22.4774 98.4653 23.7254 98.3373 24.92C98.2093 26.0934 98.1453 27.416 98.1453 28.888C98.1453 29.6987 97.9746 30.2854 97.6333 30.648C97.3133 30.9894 96.7799 31.16 96.0333 31.16C95.3079 31.16 94.7639 30.9894 94.4013 30.648C94.0599 30.2854 93.8893 29.7094 93.8893 28.92L93.9213 28.408C93.2599 30.2427 92.1186 31.16 90.4973 31.16ZM91.7453 27.928C92.3426 27.928 92.8866 27.512 93.3773 26.68C93.8679 25.848 94.3053 24.3654 94.6893 22.232L95.2973 19C94.4226 19.0214 93.6119 19.3627 92.8653 20.024C92.1186 20.664 91.5213 21.5174 91.0733 22.584C90.6253 23.6507 90.4013 24.7814 90.4013 25.976C90.4013 26.616 90.5186 27.1067 90.7533 27.448C91.0093 27.768 91.3399 27.928 91.7453 27.928Z" fill="#9173F3"/>
</svg>
